<svg width="30" height="30" viewBox="0 0 30 30" fill="none" xmlns="http://www.w3.org/2000/svg">
<rect width="30" height="30" rx="4" fill="#16B3EF"/>
<path d="M5.90135 12.981C5.769 12.981 5.64223 12.9285 5.54866 12.8349C5.4551 12.7413 5.40258 12.6146 5.40258 12.4822V6.4986C5.40258 6.36643 5.4551 6.23947 5.54866 6.14608C5.64223 6.05252 5.769 6 5.90135 6H24.1015H24.1013C24.3768 6 24.6001 6.22313 24.6001 6.49859V12.4822C24.6001 12.6145 24.5476 12.7413 24.454 12.8349C24.3605 12.9285 24.2337 12.981 24.1013 12.981H13.7547V16.4713H24.1013C24.3768 16.4713 24.6001 16.6946 24.6001 16.9699V22.9535C24.6001 23.0857 24.5476 23.2125 24.454 23.306C24.3604 23.3996 24.2337 23.4521 24.1013 23.4521H5.90117H5.90134C5.76899 23.4521 5.64222 23.3996 5.54865 23.306C5.45509 23.2125 5.40257 23.0857 5.40257 22.9535V16.9699C5.40257 16.8377 5.45509 16.7108 5.54865 16.6174C5.64222 16.5238 5.76899 16.4713 5.90134 16.4713H12.7576V12.981L5.90135 12.981ZM6.39994 22.455H23.6028V17.4687H6.39994V22.455ZM23.6028 6.99737H6.39994V11.9837H23.6028V6.99737Z" fill="white"/>
<path d="M20.6112 7.74516C21.0409 7.74516 21.4533 7.91594 21.7571 8.21975C22.0611 8.52375 22.2317 8.93592 22.2317 9.36563C22.2317 9.79554 22.0611 10.2077 21.7571 10.5117C21.4533 10.8155 21.0409 10.9863 20.6112 10.9863C20.1815 10.9863 19.7691 10.8155 19.4653 10.5117C19.1613 10.2077 18.9907 9.79553 18.9907 9.36563C18.9913 8.93608 19.1622 8.52428 19.466 8.22042C19.7699 7.91678 20.1817 7.74583 20.6113 7.74512L20.6112 7.74516ZM20.6112 9.98893C20.8634 9.98893 21.0905 9.8371 21.1871 9.60424C21.2836 9.37137 21.2302 9.1032 21.0519 8.92494C20.8737 8.74668 20.6057 8.69329 20.3726 8.78981C20.1398 8.88633 19.9879 9.11363 19.9879 9.36564C19.9879 9.53103 20.0537 9.68964 20.1705 9.8065C20.2874 9.92337 20.4458 9.98894 20.6112 9.98894L20.6112 9.98893Z" fill="white"/>
<path d="M16.1225 7.74516C16.5524 7.74516 16.9646 7.91594 17.2684 8.21975C17.5724 8.52375 17.7432 8.93592 17.7432 9.36563C17.7432 9.79554 17.5724 10.2077 17.2684 10.5117C16.9646 10.8155 16.5524 10.9863 16.1225 10.9863C15.6928 10.9863 15.2806 10.8155 14.9766 10.5117C14.6728 10.2077 14.502 9.79553 14.502 9.36563C14.5027 8.93608 14.6737 8.52428 14.9773 8.22042C15.2812 7.91678 15.693 7.74583 16.1226 7.74512L16.1225 7.74516ZM16.1225 9.98893C16.3747 9.98893 16.602 9.8371 16.6983 9.60424C16.7949 9.37137 16.7415 9.1032 16.5632 8.92494C16.385 8.74668 16.117 8.69329 15.8841 8.78981C15.6511 8.88633 15.4992 9.11363 15.4992 9.36564C15.4992 9.53103 15.565 9.68964 15.6818 9.8065C15.7987 9.92337 15.9573 9.98894 16.1225 9.98894L16.1225 9.98893Z" fill="white"/>
<path d="M9.39149 21.4578C8.96176 21.4578 8.54942 21.287 8.24561 20.9832C7.94162 20.6792 7.77102 20.267 7.77102 19.8373C7.77102 19.4074 7.94162 18.9953 8.24561 18.6913C8.54943 18.3874 8.96177 18.2167 9.39149 18.2167C9.82121 18.2167 10.2336 18.3875 10.5374 18.6913C10.8414 18.9953 11.012 19.4074 11.012 19.8373C11.0114 20.2669 10.8405 20.6787 10.5367 20.9825C10.2328 21.2862 9.82103 21.4571 9.39145 21.4578L9.39149 21.4578ZM9.39149 19.214C9.13932 19.214 8.91218 19.3659 8.81566 19.5987C8.71914 19.8316 8.77253 20.0998 8.95079 20.278C9.12904 20.4563 9.39702 20.5097 9.63009 20.4131C9.86295 20.3166 10.0148 20.0893 10.0148 19.8373C10.0148 19.493 9.73565 19.214 9.39148 19.214L9.39149 19.214Z" fill="white"/>
<path d="M13.88 21.4578C13.4501 21.4578 13.0379 21.287 12.7341 20.9832C12.4301 20.6792 12.2594 20.267 12.2594 19.8373C12.2594 19.4074 12.4301 18.9953 12.7341 18.6913C13.038 18.3874 13.4501 18.2167 13.88 18.2167C14.3097 18.2167 14.7219 18.3875 15.0259 18.6913C15.3297 18.9953 15.5005 19.4074 15.5005 19.8373C15.4998 20.2669 15.3288 20.6787 15.0252 20.9825C14.7214 21.2862 14.3096 21.4571 13.88 21.4578L13.88 21.4578ZM13.88 19.214C13.6278 19.214 13.4005 19.3659 13.3042 19.5987C13.2077 19.8316 13.2611 20.0998 13.4393 20.278C13.6176 20.4563 13.8855 20.5097 14.1184 20.4131C14.3515 20.3166 14.5033 20.0893 14.5033 19.8373C14.5033 19.493 14.2242 19.214 13.88 19.214L13.88 19.214Z" fill="white"/>
</svg>
