<svg width="30" height="30" viewBox="0 0 30 30" fill="none" xmlns="http://www.w3.org/2000/svg">
<rect width="30" height="30" rx="4" fill="#16B3EF"/>
<path d="M14.6875 12.0795C17.0721 12.0795 19.3062 11.954 21.0131 11.7031C23.6236 11.3265 23.975 10.8244 23.975 10.3725V6.507C23.975 6.03003 23.6236 5.5531 21.0131 5.17662C19.3313 4.92553 17.0721 4.80017 14.6875 4.80017C12.303 4.80017 10.0689 4.92571 8.36197 5.17662C5.75151 5.55307 5.40009 6.03003 5.40009 6.507V10.3725C5.40009 10.8495 5.7515 11.3264 8.36197 11.7029C10.069 11.954 12.303 12.0795 14.6875 12.0795V12.0795ZM23.0965 10.2722C22.6446 10.5984 19.8583 11.2009 14.6875 11.2009C9.51673 11.2009 6.73038 10.6237 6.27855 10.2722V6.58232C6.73047 6.25595 9.51673 5.65343 14.6875 5.65343C19.8583 5.65343 22.6447 6.23072 23.0965 6.58214V10.2722ZM5.4 12.1297V15.9952C5.4 16.4722 5.75141 16.9491 8.36188 17.3256C10.0437 17.5767 12.3029 17.702 14.6874 17.702C17.072 17.702 19.3061 17.5765 21.013 17.3256C23.6235 16.9743 23.9749 16.4723 23.9749 16.0204V12.1297C23.9749 12.0544 23.1215 12.0041 23.1215 12.0041C22.8203 12.3305 20.0341 12.958 14.6874 12.958C9.34075 12.958 6.55453 12.3305 6.22821 12.0041L5.4 12.1297ZM23.0964 15.9201C22.6447 16.2715 19.8584 16.8488 14.6874 16.8488C9.5165 16.8488 6.73024 16.2715 6.27842 15.9201V13.0083C6.73015 13.1841 7.38293 13.3346 8.36184 13.46C10.0436 13.7111 12.3029 13.8364 14.6874 13.8364C17.072 13.8364 19.3061 13.7109 21.013 13.46C21.9919 13.3094 22.6445 13.1588 23.0964 13.0083V15.9201ZM6.22821 17.6519C6.52938 17.9783 9.31565 18.6058 14.6874 18.6058C20.034 18.6058 22.8203 17.9783 23.1466 17.6519C23.1466 17.6519 24 17.7022 24 17.7775V21.643C24 22.12 23.6486 22.5969 21.0381 22.9734C19.3563 23.2245 17.0971 23.3498 14.7126 23.3498V22.4716C19.8835 22.4716 22.6697 21.8943 23.1215 21.5429V18.6561C22.6698 18.8319 22.017 18.9825 21.0381 19.1078C19.3563 19.3589 17.0971 19.4843 14.7126 19.4843C12.328 19.4843 10.0939 19.3587 8.38698 19.1078C5.77652 18.7314 5.4251 18.2544 5.4251 17.7775L6.22821 17.6519ZM12.4033 21.3419H14.7126V24.6051H12.4033V21.3419ZM14.7126 21.3419C15.4657 21.3419 16.068 22.0697 16.068 22.9734C16.068 23.877 15.4655 24.6049 14.7126 24.6049C13.9596 24.6049 13.3573 23.877 13.3573 22.9734C13.3573 22.0699 13.9848 21.3419 14.7126 21.3419ZM10.7718 22.2707C10.7718 22.0449 10.9476 21.844 11.1985 21.844H12.6041C12.83 21.844 13.0308 22.0198 13.0308 22.2707C13.0308 22.4966 12.855 22.6975 12.6041 22.6975H11.1985C10.9726 22.6722 10.7718 22.4966 10.7718 22.2707ZM10.7718 23.6764C10.7718 23.4505 10.9476 23.2497 11.1985 23.2497H12.6041C12.83 23.2497 13.0308 23.4255 13.0308 23.6764C13.0308 23.9023 12.855 24.1031 12.6041 24.1031H11.1985C10.9726 24.1031 10.7718 23.9023 10.7718 23.6764Z" fill="white"/>
</svg>
