<svg width="30" height="30" viewBox="0 0 30 30" fill="none" xmlns="http://www.w3.org/2000/svg">
<rect width="30" height="30" rx="4" fill="#16B3EF"/>
<path d="M6.93665 6.62872C7.05952 6.62872 7.16025 6.74574 7.16025 6.8889C7.16025 7.03186 7.05968 7.14907 6.93665 7.14907H5.08138V7.92942H6.93677C7.05964 7.92942 7.16037 8.04644 7.16037 8.1896C7.16037 8.33256 7.0598 8.44977 6.93677 8.44977L5.08138 8.44959V19.7612H24.753V8.44959H22.9579C22.835 8.44959 22.7343 8.33257 22.7343 8.18942C22.7343 8.04645 22.8349 7.92924 22.9579 7.92924H24.753V7.14889H22.9579C22.835 7.14889 22.7343 7.03187 22.7343 6.88872C22.7343 6.74575 22.8349 6.62854 22.9579 6.62854L25.2002 6.62872V21.5822H16.3703V24.68H18.096C18.2189 24.68 18.3196 24.797 18.3196 24.9401C18.3196 25.0831 18.219 25.2003 18.096 25.2003H11.7362C11.6134 25.2003 11.5126 25.0833 11.5126 24.9401C11.5126 24.7972 11.6132 24.68 11.7362 24.68H13.4642V21.5822H4.63437V6.62872H6.93665ZM13.9111 24.6825H15.9229V21.582H13.9111V24.6825ZM5.08125 21.0619H24.7529V20.2815H5.08125V21.0619Z" fill="white" stroke="white" stroke-width="0.4"/>
<path d="M21.9747 18.3176C21.8519 18.3176 21.7511 18.2006 21.7511 18.0574V7.04215H8.08399V18.0574C8.08399 18.2004 7.98341 18.3176 7.86038 18.3176C7.73751 18.3176 7.63678 18.2006 7.63678 18.0574L7.63694 4.80017H22.1982V18.0574C22.1982 18.2004 22.0977 18.3174 21.9748 18.3174L21.9747 18.3176ZM21.7511 5.32045H8.08399V6.52207L21.7511 6.52225V5.32045Z" fill="white" stroke="white" stroke-width="0.4"/>
<path d="M19.4509 5.58801H19.5381C19.661 5.58801 19.7617 5.70504 19.7617 5.84819C19.7617 5.99116 19.6611 6.10836 19.5381 6.10836H19.4509C19.3281 6.10836 19.2273 5.99134 19.2273 5.84819C19.2275 5.70504 19.3259 5.58801 19.4509 5.58801Z" fill="white" stroke="white" stroke-width="0.4"/>
<path d="M20.2327 5.58801H20.3199C20.4427 5.58801 20.5435 5.70504 20.5435 5.84819C20.5435 5.99116 20.4429 6.10836 20.3199 6.10836H20.2327C20.1098 6.10836 20.0091 5.99134 20.0091 5.84819C20.0091 5.70504 20.1098 5.58801 20.2327 5.58801Z" fill="white" stroke="white" stroke-width="0.4"/>
<path d="M21.0174 5.58801H21.1045C21.2274 5.58801 21.3281 5.70504 21.3281 5.84819C21.3281 5.99116 21.2276 6.10836 21.1045 6.10836H21.0174C20.8945 6.10836 20.7938 5.99134 20.7938 5.84819C20.7938 5.70504 20.8943 5.58801 21.0174 5.58801Z" fill="white" stroke="white" stroke-width="0.4"/>
<path d="M13.8378 15.8207C13.7954 15.8675 13.7394 15.8909 13.6858 15.8909C13.6254 15.8909 13.5673 15.8623 13.5225 15.8076L10.9205 12.5745L13.5225 9.34162C13.6075 9.23766 13.7483 9.2324 13.8377 9.32856C13.927 9.42744 13.9315 9.59127 13.8489 9.69523L11.533 12.5746L13.8489 15.4539C13.9339 15.558 13.9293 15.7244 13.8378 15.8207V15.8207Z" fill="white" stroke="white" stroke-width="0.4"/>
<path d="M15.9972 9.32815C16.0866 9.22927 16.2297 9.23454 16.3124 9.34122L18.9146 12.5743L16.3125 15.8074C16.2678 15.862 16.2098 15.8907 16.1493 15.8907C16.0935 15.8907 16.0398 15.8673 15.9972 15.8205C15.9079 15.7216 15.9034 15.5578 15.986 15.4538L18.3021 12.5743L15.9862 9.69499C15.9012 9.59085 15.9057 9.42702 15.9972 9.32814L15.9972 9.32815Z" fill="white" stroke="white" stroke-width="0.4"/>
</svg>
