<svg width="45" height="30" viewBox="0 0 45 30" fill="none" xmlns="http://www.w3.org/2000/svg">
<path d="M0 4C0 1.79086 1.79086 0 4 0H41C43.2091 0 45 1.79086 45 4V26C45 28.2091 43.2091 30 41 30H4C1.79086 30 0 28.2091 0 26V4Z" fill="#16B3EF"/>
<path d="M12.0534 18.4489V11.4091H13.8333V18.4489H12.0534ZM9.42347 15.8189V14.0391H16.4632V15.8189H9.42347ZM26.1964 9.81818V20H24.0437V11.8615H23.984L21.6523 13.3232V11.4141L24.1729 9.81818H26.1964ZM32.335 20.1392C31.6324 20.1392 31.006 20.0099 30.4558 19.7514C29.9089 19.4929 29.4747 19.1366 29.1532 18.6825C28.8317 18.2285 28.6644 17.7081 28.6511 17.1214H30.7392C30.7624 17.5159 30.9281 17.8357 31.2363 18.081C31.5446 18.3262 31.9108 18.4489 32.335 18.4489C32.6731 18.4489 32.9714 18.3743 33.2299 18.2251C33.4918 18.0727 33.6956 17.8622 33.8414 17.5938C33.9906 17.322 34.0652 17.0104 34.0652 16.6591C34.0652 16.3011 33.9889 15.9863 33.8365 15.7145C33.6873 15.4427 33.4802 15.2306 33.215 15.0781C32.9499 14.9257 32.6466 14.8478 32.3052 14.8445C32.0069 14.8445 31.7169 14.9058 31.4352 15.0284C31.1568 15.151 30.9397 15.3184 30.7839 15.5305L28.8699 15.1875L29.3521 9.81818H35.5765V11.5781H31.127L30.8635 14.1286H30.9231C31.1021 13.8767 31.3722 13.6679 31.7335 13.5021C32.0948 13.3364 32.4991 13.2536 32.9466 13.2536C33.5597 13.2536 34.1066 13.3977 34.5872 13.6861C35.0678 13.9744 35.4473 14.3705 35.7257 14.8743C36.0041 15.3748 36.1416 15.9515 36.1383 16.6044C36.1416 17.2905 35.9825 17.9003 35.661 18.4339C35.3429 18.9643 34.8971 19.3819 34.3237 19.6868C33.7536 19.9884 33.0907 20.1392 32.335 20.1392Z" fill="white"/>
</svg>
